<svg width="135" height="135" viewBox="0 0 135 135" fill="none" xmlns="http://www.w3.org/2000/svg">
<g style="mix-blend-mode:hard-light" filter="url(#filter0_f)">
<path d="M52.6588 32.0985L105.159 62.4094C108.941 64.5929 108.941 70.0517 105.159 72.2352L52.6587 102.546C48.8768 104.73 44.1494 102 44.1494 97.6332L44.1494 37.0114C44.1494 32.6444 48.8768 29.915 52.6588 32.0985Z" stroke="#FFAB2D" stroke-width="2.65417"/>
</g>
<g style="mix-blend-mode:hard-light" filter="url(#filter1_f)">
<path d="M52.4546 32.4521L104.955 62.763C108.464 64.7893 108.464 69.8552 104.955 71.8815L52.4546 102.192C48.9449 104.219 44.5577 101.686 44.5577 97.6332L44.5577 37.0114C44.5577 32.9587 48.9449 30.4258 52.4546 32.4521Z" stroke="#FFAB2D" stroke-width="3.47083"/>
</g>
<g style="mix-blend-mode:hard-light" filter="url(#filter2_ddi)">
<path d="M52.6588 32.0985L105.159 62.4094C108.941 64.5929 108.941 70.0517 105.159 72.2352L52.6587 102.546C48.8768 104.73 44.1494 102 44.1494 97.6332L44.1494 37.0114C44.1494 32.6444 48.8768 29.915 52.6588 32.0985Z" stroke="#574924" stroke-opacity="0.2" stroke-width="2.65417"/>
</g>
<g filter="url(#filter3_f)">
<path d="M52.914 31.6565L105.414 61.9674C109.536 64.3473 109.536 70.2972 105.414 72.6772L52.914 102.988C48.7917 105.368 43.639 102.393 43.639 97.6332L43.639 37.0114C43.639 32.2514 48.7917 29.2765 52.914 31.6565Z" stroke="#FFD56A" stroke-width="1.63333"/>
</g>
<g filter="url(#filter4_f)">
<path d="M53.1181 31.3028L105.618 61.6137C110.013 64.1509 110.013 70.4937 105.618 73.0308L53.1181 103.342C48.7237 105.879 43.2306 102.707 43.2306 97.6332L43.2306 37.0114C43.2306 31.9371 48.7237 28.7657 53.1181 31.3028Z" stroke="white" stroke-width="0.816667"/>
</g>
<defs>
<filter id="filter0_f" x="6.09983" y="4.38726" width="113.695" height="110.715" filterUnits="userSpaceOnUse" color-interpolation-filters="sRGB">
<feFlood flood-opacity="0" result="BackgroundImageFix"/>
<feBlend mode="normal" in="SourceGraphic" in2="BackgroundImageFix" result="shape"/>
<feGaussianBlur stdDeviation="3.95062" result="effect1_foregroundBlur"/>
</filter>
<filter id="filter1_f" x="11.3673" y="9.65476" width="103.16" height="100.18" filterUnits="userSpaceOnUse" color-interpolation-filters="sRGB">
<feFlood flood-opacity="0" result="BackgroundImageFix"/>
<feBlend mode="normal" in="SourceGraphic" in2="BackgroundImageFix" result="shape"/>
<feGaussianBlur stdDeviation="1.31687" result="effect1_foregroundBlur"/>
</filter>
<filter id="filter2_ddi" x="10.5772" y="11.4984" width="104.74" height="101.76" filterUnits="userSpaceOnUse" color-interpolation-filters="sRGB">
<feFlood flood-opacity="0" result="BackgroundImageFix"/>
<feColorMatrix in="SourceAlpha" type="matrix" values="0 0 0 0 0 0 0 0 0 0 0 0 0 0 0 0 0 0 127 0"/>
<feOffset dy="2.65417"/>
<feGaussianBlur stdDeviation="1.02083"/>
<feColorMatrix type="matrix" values="0 0 0 0 0.224 0 0 0 0 0.15 0 0 0 0 0 0 0 0 0.7 0"/>
<feBlend mode="multiply" in2="BackgroundImageFix" result="effect1_dropShadow"/>
<feColorMatrix in="SourceAlpha" type="matrix" values="0 0 0 0 0 0 0 0 0 0 0 0 0 0 0 0 0 0 127 0"/>
<feOffset dy="2.63375"/>
<feGaussianBlur stdDeviation="1.71194"/>
<feColorMatrix type="matrix" values="0 0 0 0 0.56 0 0 0 0 0.44 0 0 0 0 0 0 0 0 1 0"/>
<feBlend mode="color-dodge" in2="effect1_dropShadow" result="effect2_dropShadow"/>
<feBlend mode="normal" in="SourceGraphic" in2="effect2_dropShadow" result="shape"/>
<feColorMatrix in="SourceAlpha" type="matrix" values="0 0 0 0 0 0 0 0 0 0 0 0 0 0 0 0 0 0 127 0" result="hardAlpha"/>
<feOffset dx="-0.265417" dy="0.530833"/>
<feGaussianBlur stdDeviation="0.132708"/>
<feComposite in2="hardAlpha" operator="arithmetic" k2="-1" k3="1"/>
<feColorMatrix type="matrix" values="0 0 0 0 1 0 0 0 0 1 0 0 0 0 1 0 0 0 0.5 0"/>
<feBlend mode="normal" in2="shape" result="effect3_innerShadow"/>
</filter>
<filter id="filter3_f" x="13.5927" y="11.8802" width="98.7091" height="95.7287" filterUnits="userSpaceOnUse" color-interpolation-filters="sRGB">
<feFlood flood-opacity="0" result="BackgroundImageFix"/>
<feBlend mode="normal" in="SourceGraphic" in2="BackgroundImageFix" result="shape"/>
<feGaussianBlur stdDeviation="0.204167" result="effect1_foregroundBlur"/>
</filter>
<filter id="filter4_f" x="13.7289" y="12.0163" width="98.4369" height="95.4565" filterUnits="userSpaceOnUse" color-interpolation-filters="sRGB">
<feFlood flood-opacity="0" result="BackgroundImageFix"/>
<feBlend mode="normal" in="SourceGraphic" in2="BackgroundImageFix" result="shape"/>
<feGaussianBlur stdDeviation="0.136111" result="effect1_foregroundBlur"/>
</filter>
</defs>
</svg>
