<svg id="Calque_2" data-name="Calque 2" xmlns="http://www.w3.org/2000/svg" viewBox="0 0 1145.37 1001.34"><defs><style>.cls-1{fill:none;stroke:#fff;stroke-miterlimit:10;}</style></defs><path class="cls-1" d="M1124.5,178.5s-209-163-468-111c-17.12,3.44-49,29-49,29-22,24-14,32-14,32-18,14-36,71-36,71v40c-5.89,4.42-12.32,28.36-15.31,40.67-1.06,4.41-1.69,7.33-1.69,7.33-41,67-81,93-81,93-21,46-141,136-141,136-5,15-58,68-58,68-122,65-183,175-183,175L77,1051.92l725.5-.42c4-25,4-132,4-132-28-125-115-230-115-230,9-7,13-2,13-2,10,41,83,39,83,39,48-53,60-56,60-56,47-17,46-24,46-24,7-9,37-17,37-17a153.39,153.39,0,0,1,5-21c76-65,79-81,79-81,1-16,19-32,19-32,47,10,28-26,28-26,56-30,50-40,50-40-13-46,1-61,1-61l4-6.5,44-71.5,2,25,54,89c17-174-16-168-16-168-22-32-37-18-37-18-26-31-39-40-39-40,4-8-13-35-13-35-47-57-98-92-98-92" transform="translate(-76.5 -51.09)"/><path class="cls-1" d="M545.5,283.5l24-26s-1-59,32-100c0,0,40-26,63,19l44,19,111-1s58,8,67,6,20-5,20-5-90,65-105,84-31,39-50,89c0,0,44,2,105-48,0,0,4-34,105-85,0,0,33-25,53-29,0,0,53,2,61,0,0,0,23,6,39,19a607.36,607.36,0,0,1,28,59l-25,74" transform="translate(-76.5 -51.09)"/><path class="cls-1" d="M980.5,185.5S884,274.14,884.74,284.32" transform="translate(-76.5 -51.09)"/><path class="cls-1" d="M978.5,205.5s-28.74,23.19-43.37,44.1" transform="translate(-76.5 -51.09)"/><path class="cls-1" d="M1127.5,199.5s18,53,15,85" transform="translate(-76.5 -51.09)"/><path class="cls-1" d="M1049.5,167.5s45,21,60,45" transform="translate(-76.5 -51.09)"/><path class="cls-1" d="M1077.5,171.5s34,15,44,41,9.37,43.9,9.37,43.9" transform="translate(-76.5 -51.09)"/><path class="cls-1" d="M972.5,183.5s-87,48-154,120" transform="translate(-76.5 -51.09)"/><path class="cls-1" d="M555.5,374.5s5,61,15,83,59,141,59,141" transform="translate(-76.5 -51.09)"/><path class="cls-1" d="M538.5,431.5s65,150,76,164" transform="translate(-76.5 -51.09)"/><path class="cls-1" d="M407.5,992.5s36.15,38.6,45.07,58.8" transform="translate(-76.5 -51.09)"/><path class="cls-1" d="M420.5,1033.5s27,7.64,29.52,18.82" transform="translate(-76.5 -51.09)"/><path class="cls-1" d="M651.5,185.5s-24-39-45-8c0,0-10,26-23,43,0,0-16,36-1,51s26,19,40,22" transform="translate(-76.5 -51.09)"/><path class="cls-1" d="M565.77,262.19s3.73,43.31,51.73,44.31" transform="translate(-76.5 -51.09)"/><path class="cls-1" d="M610.5,220.5s-36,18-22,30a36.41,36.41,0,0,1,34,17s7,16,18,2c0,0-2-14,1-16" transform="translate(-76.5 -51.09)"/><path class="cls-1" d="M649.5,219.5s-5,30-40,20" transform="translate(-76.5 -51.09)"/><path class="cls-1" d="M647.5,208.5s-29,4-32-1" transform="translate(-76.5 -51.09)"/><path class="cls-1" d="M645.5,220.5s-25-1-29,1" transform="translate(-76.5 -51.09)"/><path class="cls-1" d="M641.5,190.5c-1,1-9,5-13,10" transform="translate(-76.5 -51.09)"/><path class="cls-1" d="M662.5,233.5s-21,29-46,19" transform="translate(-76.5 -51.09)"/><path class="cls-1" d="M698.45,685.94" transform="translate(-76.5 -51.09)"/></svg>