<svg xmlns="http://www.w3.org/2000/svg" viewBox="0 0 299 316.14"><defs><style>.cls-1{fill:none;stroke:#fff;stroke-miterlimit:10;}</style></defs><g id="Calque_2" data-name="Calque 2"><g id="Calque_4" data-name="Calque 4"><path class="cls-1" d="M85.5,139.64s-11,6-12,28c0,0-33,9-46,16l-16,1v6l-11,6v117l297,2,1-96s-65-36-74-40-21-9-22-9-5,1-8,0-5-5-5-5a62.12,62.12,0,0,0-9-29s4-13,4-19c0,0,4-1,5-3,0,0,2-21,5-22,0,0,4-14-7-9,0,0,5-46-16-59,0,0-36-46-74-11,0,0-19,20-22,35v33s-6,2-6,4,0,13,5,19c0,0-1,14,4,14C78.5,118.64,79.5,136.64,85.5,139.64Z"/></g></g></svg>