<svg id="a606ce14-7cf3-4e8b-a3fa-cb9b0e3d5e37" xmlns="http://www.w3.org/2000/svg" viewBox="0 0 649 599.76"><defs><style>.cls-1{fill:#ffb7b7;}.cls-2,.cls-7{fill:#2f2e41;}.cls-3{fill:#e5e5e5;}.cls-4{opacity:0.1;}.cls-4,.cls-7{isolation:isolate;}.cls-5{fill:#878787;}.cls-6{fill:#fff;}.cls-7{opacity:0.17;}</style></defs><polygon class="cls-1" points="409.79 528.6 401.61 549.89 315.59 528.47 327.66 497.05 409.79 528.6"/><path class="cls-2" d="M432.52,531.1l-26.38,68.66-.87-.33a28.65,28.65,0,0,1-16.46-37h0l16.12-41.93Z"/><path class="cls-3" d="M279.07,262l-37.48,3.51L239.73,377a21,21,0,0,0,22.35,19l23.77-1.64Z"/><path class="cls-3" d="M411.24,256.5l-25.65-.33-1.52,132.54h0a41.28,41.28,0,0,0,42.63-39.88c0-1,0-2,0-3Z"/><path class="cls-2" d="M262.4,435.79a81.74,81.74,0,0,1-2.64,11.36c-1.29,3.64-3.29,7-4.47,10.68-3.78,11.72,1.45,24.79,9.81,33.84a55.16,55.16,0,0,0,26.92,16c7.53,1.89,15.37,2.16,23.13,2.43,21.51.73,43.56,1.38,63.94-5.53a111.29,111.29,0,0,0,18.57-8.44,13.94,13.94,0,0,0,4.82-3.79c1.55-2.22,1.75-5.09,1.74-7.79-.05-9.12-1.89-18.18-1.46-27.29.25-5,1.19-10.08.73-15.11a27.88,27.88,0,0,0-21.31-24c-5.78-1.24-11.77-.57-17.66,0a449.09,449.09,0,0,1-46,2.05c-15.67-.1-31.26-2.49-46.86-2.74-4.61-.07-4.52,1.35-6,5.81A108.63,108.63,0,0,0,262.4,435.79Z"/><path class="cls-2" d="M201.09,428.38a46.32,46.32,0,0,0-12.9-1.37A32.2,32.2,0,0,0,157.81,461a30.35,30.35,0,0,0,.48,4,54,54,0,0,0,5.11,14c3.42,6.95,7.53,13.88,13.86,18.33,3.71,2.6,8,4.22,12.24,5.82l33.36,12.57c4.91,1.85,9.82,3.7,14.78,5.42a289.29,289.29,0,0,0,77.18,15.34c8,.48,16.14.61,24-1.22,1.86-.43,3.83-1.07,4.91-2.65a8.38,8.38,0,0,0,1.09-3.62l2.06-14.37c.29-2,.56-4.16-.18-6.06-.94-2.42-3.3-3.94-5.54-5.23-21.94-12.6-47.56-19.55-66-36.84-4.35-4.07-8-10.53-13.27-13.29-6-3.14-13-4.93-19.23-7.82C229.07,439,215.76,431.75,201.09,428.38Z"/><path class="cls-4" d="M234.41,447.76c11.79,3.7,61.59,29.3,70.12,38.24-1.14.41-40-21.34-41.12-21.69-10.59-3.18-21.24-6.38-31.29-11-2-.93-13.14-5.33-12.64-7.88C220.05,442.52,232.31,447.11,234.41,447.76Z"/><path class="cls-3" d="M305.59,224.5l-31.76,24.11s-33.51,1-32.38,22.47S256,393.92,256,393.92l2.91,34.89,55.19,15.73a180.59,180.59,0,0,0,91.49,2h0l-6.56-35s26.56-159,10.56-166-26-5-26-5L363.53,223Z"/><path class="cls-5" d="M381,180.48c0,31.3-11.26,14.71-47,14.71s-40.51,14.53-40.51-16.77-9.09-79.65,41.42-79.65C387.19,98.77,381,149.18,381,180.48Z"/><circle class="cls-1" cx="337.79" cy="165.4" r="43.5" transform="translate(-18.02 287.3) rotate(-45)"/><path class="cls-5" d="M329.26,164.1C344,140,364.8,118.25,339.37,118.25h-8.86a46.05,46.05,0,0,0-46.05,46.05h17.21l7.59-21.25,1.52,21.25H319l4.43-12.4.88,12.4"/><rect class="cls-6" x="291.59" y="229.5" width="87" height="105"/><polygon class="cls-1" points="296.38 527.6 304.56 548.89 390.59 527.47 378.51 496.05 296.38 527.6"/><path class="cls-2" d="M301.25,519.5l16.11,41.93h0a28.64,28.64,0,0,1-16.46,37l-.87.33L273.65,530.1Z"/><path class="cls-2" d="M468.33,420.23a60.09,60.09,0,0,1,21.16-1.44c5.66.62,11.49,2.19,15.61,6.11,5,4.76,6.65,12.13,6.78,19.06a59.52,59.52,0,0,1-12.94,38,34.52,34.52,0,0,1-7.4,7.13,49.09,49.09,0,0,1-9.63,4.64l-74.72,29.47c-19.66,7.76-39.39,15.53-59.9,20.64a4.67,4.67,0,0,1-6.23-2.17l-.05-.1a155,155,0,0,1-16.38-30,2,2,0,0,1,.89-3.19l52.86-30.37c3.79-2.17,7.61-4.38,10.76-7.41a26.78,26.78,0,0,0,5.52-7.69c1.1-2.29,1.2-7.69,2.6-9.38s6.06-1.79,8.22-2.44a73.72,73.72,0,0,0,8.95-3.38c11.83-5.29,22.35-13,33.69-19.17A86.67,86.67,0,0,1,468.33,420.23Z"/><path class="cls-4" d="M438.37,442.91c-9.08,6.82-20.84,13.09-29.84,20.09-3.07,2.39-54.27,31.18-55,35,8.4,1.42,61.88-36,69.54-39.74s14.43-9,21.16-14.22c1.71-1.33,9-5.34,4-6.82C445.51,436.38,440.42,441.55,438.37,442.91Z"/><path class="cls-7" d="M261.59,296.5l1.2-9.27s44.8,3.27,37.8,14.27-24,12-24,12Z"/><path class="cls-1" d="M295.4,256.19A17.51,17.51,0,0,1,308.13,264h0a17.47,17.47,0,0,1-5.08,24.18c-.2.13-.4.26-.61.38a16.51,16.51,0,0,1-2.31,1.14l-27.54,84.23a14,14,0,0,1-25.22-12.12.83.83,0,0,1,.07-.13l29.28-83.29a17.47,17.47,0,0,1,18.68-22.21Z"/><path class="cls-3" d="M262,288s15.78,27,38.59,13.48l-22.11,84.6H259.85l-19.26-3.6L246,347.55Z"/><path class="cls-3" d="M374.66,306.45,361.59,288.5s6.28-18.61,30.64-11.8C392.23,276.7,407.73,311.39,374.66,306.45Z"/><path class="cls-7" d="M374.66,306.45,361.59,288.5s6.28-18.61,30.64-11.8C392.23,276.7,407.73,311.39,374.66,306.45Z"/><path class="cls-1" d="M378.12,243.75a17.36,17.36,0,0,1,9.33,20.65l29.29,83.29a14,14,0,1,1-25.09,12.38.83.83,0,0,1-.07-.13L364,275.71a16.51,16.51,0,0,1-2.31-1.14,17.48,17.48,0,0,1-6.06-24c.12-.2.25-.4.38-.6h0a17.49,17.49,0,0,1,12.72-7.82A17.31,17.31,0,0,1,378.12,243.75Z"/><path class="cls-3" d="M361.59,288.5s21.56,13.09,30.64-11.8l30.39,80-9,15.79-1.31.11a33.4,33.4,0,0,1-28.58-12.09h0a66.33,66.33,0,0,1-13.86-29.47Z"/></svg>