<svg id="bb99a283-2cd2-4c10-aa44-4c8aab8f089f" xmlns="http://www.w3.org/2000/svg" viewBox="0 0 674.07 434.55"><defs><style>.cls-1{fill:#f2f2f2;}.cls-2{fill:#e6e6e6;}.cls-3{fill:#fff;}.cls-4{fill:blue;}.cls-5{fill:#acacbf;}.cls-6{fill:#2f2e41;}.cls-7{fill:#3f3d56;}</style></defs><path class="cls-1" d="M312.43,357,239.2,388.29a16.52,16.52,0,0,1-21.66-8.68l-40.42-94.49a16.51,16.51,0,0,1,8.68-21.66L259,232.13a16.52,16.52,0,0,1,21.66,8.68l40.43,94.49A16.52,16.52,0,0,1,312.43,357Z" transform="translate(-95.17 -147.99)"/><path class="cls-1" d="M436.34,304l-73.23,31.33a16.52,16.52,0,0,1-21.66-8.68L301,232.11a16.52,16.52,0,0,1,8.68-21.66l73.23-31.33a16.52,16.52,0,0,1,21.66,8.68L445,282.29A16.52,16.52,0,0,1,436.34,304Z" transform="translate(-95.17 -147.99)"/><path class="cls-2" d="M752.74,582.54H111.9A16.52,16.52,0,0,1,95.4,566V170.89a12.11,12.11,0,0,1,12.09-12.09H756.94a12.32,12.32,0,0,1,12.3,12.3V566A16.52,16.52,0,0,1,752.74,582.54Z" transform="translate(-95.17 -147.99)"/><path class="cls-3" d="M732,561.71H134.77c-8.75,0-15.87-6.67-15.87-14.87V202.73c0-6.08,5.28-11,11.76-11H735.94c6.59,0,12,5,12,11.21V546.84C747.9,555,740.77,561.71,732,561.71Z" transform="translate(-95.17 -147.99)"/><path class="cls-4" d="M769,172.94H95.17v-8.4A16.57,16.57,0,0,1,111.73,148H752.45A16.57,16.57,0,0,1,769,164.54Z" transform="translate(-95.17 -147.99)"/><circle class="cls-3" cx="30.1" cy="12.5" r="4.28"/><circle class="cls-3" cx="46.35" cy="12.5" r="4.28"/><circle class="cls-3" cx="62.61" cy="12.5" r="4.28"/><rect class="cls-2" x="301.03" y="140.31" width="324" height="41.03" rx="20.51"/><rect class="cls-2" x="301.03" y="208.2" width="324" height="41.03" rx="20.51"/><rect class="cls-2" x="301.03" y="276.09" width="324" height="41.03" rx="20.51"/><path class="cls-3" d="M369.59,376.71a110,110,0,1,1-110-110A110,110,0,0,1,369.59,376.71Z" transform="translate(-95.17 -147.99)"/><path class="cls-5" d="M310.43,395.53c-1.2,70.35-105.84,70.34-107,0C204.6,325.18,309.24,325.19,310.43,395.53Z" transform="translate(-95.17 -147.99)"/><path class="cls-6" d="M254.79,417.37l-.06-2c13.79,1.84,16.76-15.25,2.85-8.86l3.18-23.19,2,.27L260,403.32C274.68,401.14,269.26,419.37,254.79,417.37Z" transform="translate(-95.17 -147.99)"/><rect class="cls-6" x="177.37" y="237.3" width="10.77" height="2"/><rect class="cls-6" x="143.37" y="237.3" width="10.77" height="2"/><path class="cls-6" d="M274.26,470.36c2.1-14.17-14.49-11.37-23.27-11.51a9.52,9.52,0,0,0-9.49,9.55,10.67,10.67,0,0,0,.21,2,52,52,0,0,0-18.49,10.2,110.47,110.47,0,0,0,70.43.78A51.71,51.71,0,0,0,274.26,470.36Z" transform="translate(-95.17 -147.99)"/><path class="cls-6" d="M231.75,370.22c9.92-5.74,21.95-1.34,32.19,1.07,19.44,6,46.7-1.51,49.06-24.67,2.46-21.53-27-33.53-36.41-12.1l2.74-.36c-30.54-45.38-83.65-43.66-83.3,18.73-.12,1.93,2.88,1.92,3,0-1.12-36.76,23.21-61.9,57.61-38.27,7.87,5.74,14.24,13.35,20.11,21.06,3.58,4,4.36-13.28,21.51-8.75,18.86,7.31,12.71,34.33-4.16,40.26-20.84,10.65-43.4-10-63.85.44a1.5,1.5,0,0,0,1.51,2.59Z" transform="translate(-95.17 -147.99)"/><path class="cls-7" d="M259.59,489.71a112.91,112.91,0,1,1,35-5.53A112.91,112.91,0,0,1,259.59,489.71Zm0-220a107,107,0,1,0,107,107v0a107.11,107.11,0,0,0-107-107Z" transform="translate(-95.17 -147.99)"/></svg>