<svg xmlns="http://www.w3.org/2000/svg" viewBox="0 0 412.84 750.92"><defs><style>.cls-1{fill:#a0616a;}.cls-2{fill:#d0cde1;}.cls-3{fill:#3f3d56;}.cls-4{opacity:0.1;isolation:isolate;}.cls-5{fill:#2f2e41;}.cls-6{fill:#fff;opacity:0.3;}.cls-7{fill:none;stroke:#2d3aaa;stroke-miterlimit:10;}</style></defs><g id="Calque_1" data-name="Calque 1"><path class="cls-1" d="M1052.13,900.58l29.06,103.67s-6,91.83,22,73.86c28.6-18.38,18-95.81,18-95.81l-16.75-93Z" transform="translate(-710.21 -329.53)"/><path class="cls-2" d="M1067.66,609.76l24,24V748.11s14.12,21.18,11.29,26.83-5.64,5.64-2.82,9.88,5.65,7.06,2.82,9.88-2.82,9.88,0,12.71,8.47,7.06,4.24,11.29-9.88,1.41-4.24,16.94,15.53,19.77,12.71,25.41-2.82,19.77-2.82,19.77l-60.71,8.47-12.71-159.53Z" transform="translate(-710.21 -329.53)"/><polygon class="cls-3" points="405.45 549.88 334.86 552.71 337.69 582.35 399.8 571.06 405.45 549.88"/><polygon class="cls-1" points="211.33 132.71 202.86 217.41 288.98 230.12 295.33 181.41 301.69 132.71 211.33 132.71"/><polygon class="cls-4" points="211.33 132.25 202.86 216.95 288.98 229.66 295.33 180.95 301.69 132.25 211.33 132.25"/><path class="cls-1" d="M734.48,865.29l48,103.06s8.47,48,21.18,49.41,25.41-49.41,25.41-49.41l-16.94-26.83-19.76-76.23Z" transform="translate(-710.21 -329.53)"/><path class="cls-5" d="M1063.06,1075.56H791.69c2.15-34,3.5-55,3.5-55l3.61-5.67,17.47-27.46,12.48-19.61L833.1,961l1.61-2.54,17.1-3.11,176.32-32.18a215,215,0,0,0,12.32,38.11q1.82,4.11,3.88,8.18c4.43,8.65,9.84,16.85,16.27,22.88,1.47,1.38,2.53,5,3.21,10.67C1065.51,1016.81,1065,1042.48,1063.06,1075.56Z" transform="translate(-710.21 -329.53)"/><path class="cls-1" d="M968.84,354.23A67.77,67.77,0,0,1,1036.6,422c0,20.53-15.51,54.34-36.6,67-15,9-23.56,20.63-40.45,20.63-37.43,0-58.48-50.21-58.48-87.63A67.77,67.77,0,0,1,968.84,354.23Z" transform="translate(-710.21 -329.53)"/><path class="cls-2" d="M817.78,560.35l-9.88-5.65s-43.77,29.65-57.89,96S726,734,726,734s-14.11,2.83-4.23,12.71,9.88,8.47,1.41,14.12-14.12-5.65-8.47,5.65,12.71,8.47,7.06,15.52-15.53,7.06-9.88,12.71-5.65,18.35,1.41,24,9.88,7.06,9.88,16.94A50.08,50.08,0,0,0,726,852.58h73.42s-14.12-26.82-9.89-32.47,5.65-11.29,2.83-14.12-11.3,2.83-2.83-4.23,11.3-2.82,8.47-11.29-8.47-4.24-2.82-8.48,9.88-2.82,7.06-7-8.47-4.24-2.82-7.06,9.88,0,8.47-7.06-2.83-4.24,0-7.06,32.47-98.82,32.47-101.65S817.78,560.35,817.78,560.35Z" transform="translate(-710.21 -329.53)"/><polygon class="cls-3" points="93.45 517.41 4.51 523.06 27.1 544.23 89.22 545.65 93.45 517.41"/><path class="cls-3" d="M829.07,952.82,810.72,986.7s55.06,7.06,74.82,14.12,70.59,16.94,70.59,16.94l12.71-49.41Z" transform="translate(-710.21 -329.53)"/><polygon class="cls-3" points="279.8 638.82 295.33 685.41 357.45 672.7 350.39 628.94 279.8 638.82"/><path class="cls-2" d="M1015.42,512.35s-4.23-2.83-14.11,2.82-42.36,8.47-57.89-8.47-26.82-31.06-31-28.23-7.06,35.29-7.06,35.29l-14.12,11.29L807.9,554.7,815,745.29l12.71,43.76s-9.88,33.89,2.82,53.65-7.05,26.82-7.05,26.82-4.24,5.65-1.42,19.77-2.82,66.35-2.82,66.35,120,53.65,245.65,7.06l-14.12-53.65-7.06-120s7.06-19.76,5.65-28.23,42.35-127.06,42.35-127.06-7.06-59.29-43.77-72-42.35-25.41-42.35-25.41S1022.48,518,1015.42,512.35Z" transform="translate(-710.21 -329.53)"/><path class="cls-5" d="M900.6,430.68s-7-10.56-4.33-21.93a66.34,66.34,0,0,0,1.9-19.75s5.68-18.41,11.36-28.69,3-14.62,20.84-17.87,10.56-26.52,57.65-1.35a13.81,13.81,0,0,0,14.35,5.41c9.74-1.89,13.26,11.64,13.26,11.64s6.5-3.79,8.93,1.63,19.81-3.25,19.81,33.28-19.77,69.18-19.77,69.18,1.45-61.46-30.76-67.69S927,370.19,918.6,393.46,900.6,430.68,900.6,430.68Z" transform="translate(-710.21 -329.53)"/><path class="cls-1" d="M1027.81,419.57c3.51,0,7,12,7,16.64s-5.59,12-9.1,12-4.45-6.74-4.45-11.42S1024.3,419.57,1027.81,419.57Z" transform="translate(-710.21 -329.53)"/></g><g id="Calque_2" data-name="Calque 2"><path class="cls-6" d="M941.38,412l-7.94,34.38A17.7,17.7,0,0,1,919,434.17l4-17.48a17.61,17.61,0,0,1,12.85-5.54A17.38,17.38,0,0,1,941.38,412Z" transform="translate(-710.21 -329.53)"/><polygon class="cls-6" points="236.45 113.36 226.42 113.36 231.44 94.69 241.47 94.69 236.45 113.36"/><path class="cls-7" d="M953.62,428.87a17.71,17.71,0,0,1-17.72,17.71,16.56,16.56,0,0,1-2.46-.18,17.71,17.71,0,0,1,2.46-35.25,17.38,17.38,0,0,1,5.48.87A17.7,17.7,0,0,1,953.62,428.87Z" transform="translate(-710.21 -329.53)"/><path class="cls-6" d="M990.76,414.43l-8,34.38a17.69,17.69,0,0,1-14.42-12.24l4-17.47a17.61,17.61,0,0,1,12.85-5.54A17.38,17.38,0,0,1,990.76,414.43Z" transform="translate(-710.21 -329.53)"/><polygon class="cls-6" points="285.83 115.77 275.8 115.77 280.81 97.1 290.85 97.1 285.83 115.77"/><path class="cls-7" d="M1003,431.28A17.71,17.71,0,0,1,985.28,449a16.8,16.8,0,0,1-2.47-.18,17.69,17.69,0,0,1-14.42-12.24,17.7,17.7,0,0,1,22.37-22.14A17.7,17.7,0,0,1,1003,431.28Z" transform="translate(-710.21 -329.53)"/><path class="cls-7" d="M953.66,426.76s6.22-8.06,14.28,0" transform="translate(-710.21 -329.53)"/></g></svg>